<svg width="64.000000" height="59.000000" viewBox="0 0 64 59" fill="none" xmlns="http://www.w3.org/2000/svg" xmlns:xlink="http://www.w3.org/1999/xlink">
	<desc>
			Created with Pixso.
	</desc>
	<defs/>
	<path id="Shape" d="M55.5293 22.7009L57.5721 28.1189C61.465 29.7947 63.9932 33.6443 64 37.9077C63.9411 43.8909 59.0826 48.696 53.1406 48.6489C50.0775 48.6484 47.1544 47.3572 45.0793 45.0876L44.0553 43.9622L50.1613 41.3845L54.4506 31.5022L50.217 25.5281C49.7805 25.2683 49.4061 24.9148 49.1201 24.4937L39.3993 9.81055L24.396 18.876L20.5671 34.2952L23.4678 34.2952L23.4678 25.7021C23.4678 23.9226 24.9007 22.4797 26.668 22.4797L34.4616 22.4797C36.0273 22.4761 37.3643 23.6167 37.618 25.1724L39.4686 36.4434L39.4686 46.1106L32.0016 46.1106L32.0016 48.2588L39.4686 48.2588C42.414 48.2588 44.8022 50.6636 44.8022 53.6294C44.8022 56.5952 42.414 59 39.4686 59L5.33359 59C2.38812 59 0 56.5952 0 53.6294C0 50.6636 2.38812 48.2588 5.33359 48.2588L12.8006 48.2588L12.8006 46.1106L9.60046 46.1106C7.83319 46.1106 6.4003 44.6677 6.4003 42.8882L6.4003 37.5176C6.4003 35.738 7.83319 34.2952 9.60046 34.2952L9.90985 34.2952L17.256 13.1619L38.3914 0.590088C38.7555 0.380371 39.1493 0.227783 39.5592 0.138184C40.9004 -0.227539 42.3333 0.144287 43.3323 1.11621C43.636 1.38525 43.8985 1.69775 44.112 2.04346C44.1516 2.11426 44.1751 2.18823 44.211 2.25806L55.0563 20.7385C55.3699 21.2793 55.534 21.8936 55.534 22.5176C55.534 22.5786 55.5324 22.6399 55.5293 22.7009ZM2.13342 53.6294C2.13342 51.8499 3.56631 50.407 5.33359 50.407C7.10086 50.407 8.53375 51.8499 8.53375 53.6294C8.53375 55.4089 7.10086 56.8518 5.33359 56.8518C3.56631 56.8518 2.13342 55.4089 2.13342 53.6294ZM42.6687 53.6294C42.6687 55.4089 41.2359 56.8518 39.4686 56.8518C37.7013 56.8518 36.2684 55.4089 36.2684 53.6294C36.2684 51.8499 37.7013 50.407 39.4686 50.407C41.2359 50.407 42.6687 51.8499 42.6687 53.6294ZM35.2293 50.407C34.4999 51.3555 34.1351 52.4924 34.1351 53.6294C34.1351 54.7664 34.4999 55.9033 35.2293 56.8518L30.9348 56.8518L30.9348 54.7036L28.8014 54.7036L28.8014 56.8518L23.4678 56.8518L23.4678 54.7036L21.3344 54.7036L21.3344 56.8518L16.0008 56.8518L16.0008 54.7036L13.8673 54.7036L13.8673 56.8518L9.57288 56.8518C10.3023 55.9033 10.6671 54.7664 10.6671 53.6294C10.6671 52.4924 10.3023 51.3555 9.57288 50.407L17.0675 50.407L17.0675 52.5552L19.2009 52.5552L19.2009 50.407L25.6013 50.407L25.6013 52.5552L27.7347 52.5552L27.7347 50.407L35.2293 50.407ZM29.8681 48.2588L14.9341 48.2588L14.9341 46.1106L29.8681 46.1106L29.8681 48.2588ZM25.6013 25.7021C25.6013 25.1089 26.0789 24.6279 26.668 24.6279L34.4616 24.6279C34.983 24.6284 35.4278 25.0083 35.5132 25.5259L37.3352 36.5325L37.3352 43.9622L25.6013 43.9622L25.6013 25.7021ZM23.4678 36.4434L23.4678 43.9622L9.60046 43.9622C9.01138 43.9622 8.53375 43.4812 8.53375 42.8882L8.53375 37.5176C8.53375 36.9243 9.01138 36.4434 9.60046 36.4434L23.4678 36.4434ZM22.5396 17.4905L18.3681 34.2952L12.1714 34.2952L19.0124 14.6116L39.4759 2.4353C39.4941 2.4248 39.5134 2.41943 39.5316 2.40967L39.5389 2.42261C39.7025 2.32568 39.8785 2.25317 40.0629 2.20776C40.6931 2.06396 41.3541 2.22656 41.8474 2.64722C41.9989 2.7793 42.1291 2.93457 42.2333 3.10669L42.3818 3.35938C42.5108 3.63843 42.5723 3.93286 42.5723 4.22314C42.5723 4.92554 42.2125 5.60474 41.5775 5.98535L22.5396 17.4905ZM41.2307 8.70386L42.675 7.83057C43.2771 7.46191 43.7751 6.94409 44.1225 6.3269L53.2198 21.8352C53.3464 22.0505 53.4113 22.2939 53.4113 22.5393C53.4113 22.6704 53.3928 22.802 53.3552 22.9302C53.2474 23.2979 52.9922 23.6042 52.651 23.7751C52.0317 24.0852 51.2801 23.8843 50.8952 23.3057L41.2307 8.70386ZM53.0875 25.8813C53.5057 25.7744 53.8943 25.573 54.2245 25.293L55.5834 28.8955L55.447 29.2114L53.0875 25.8813ZM53.1437 46.5049C51.2218 46.5039 49.3524 45.8723 47.819 44.7053L51.7744 43.0322L55.896 33.543L56.9627 31.0728L57.283 30.3479C60.0972 31.8059 61.8671 34.7246 61.8697 37.9119C61.8113 42.7087 57.9075 46.5527 53.1437 46.5049Z" clip-rule="evenodd" fill="#000000" fill-opacity="1.000000" fill-rule="evenodd"/>
</svg>
