<svg width="64.000000" height="64.000000" viewBox="0 0 64 64" fill="none" xmlns="http://www.w3.org/2000/svg" xmlns:xlink="http://www.w3.org/1999/xlink">
	<desc>
			Created with Pixso.
	</desc>
	<defs/>
	<path id="Shape" d="M55.4662 3.19995L62.9328 3.19995C63.5219 3.19995 63.9995 3.67749 63.9995 4.2666L63.9995 8.53345C63.9995 9.1228 63.5219 9.6001 62.9328 9.6001L55.4662 9.6001L55.4662 10.6667C55.4662 11.2563 54.9886 11.7334 54.3995 11.7334L52.2662 11.7334L52.2662 61.8667L54.1647 61.8667C53.6221 61.2744 53.3324 60.5076 53.3324 59.7253C53.3324 59.4255 53.3749 59.1235 53.462 58.8281C53.7761 57.7625 54.6256 56.9385 55.7011 56.6572C55.5425 56.2664 55.4661 55.8584 55.4661 55.4551C55.4661 54.4795 55.9131 53.5303 56.7245 52.9109C57.8708 52.0354 59.4615 52.0354 60.6078 52.9109C61.4193 53.5303 61.8662 54.4795 61.8662 55.4551C61.8662 55.8584 61.7899 56.2664 61.6313 56.6572C62.7068 56.9385 63.5563 57.7625 63.8703 58.8281C63.9575 59.1235 64 59.4255 64 59.7253C64 60.5076 63.7103 61.2744 63.1677 61.8667L63.9995 61.8667L63.9995 64L0 64L0 61.8667L0.625 61.8667L5.64581 56.8464C6.06244 56.4297 6.73743 56.4297 7.15411 56.8464L12.1749 61.8667L13.8666 61.8667L13.8666 13.8667L15.9999 13.8667L15.9999 18.1333L29.8664 18.1333L29.8664 20.2666L15.9999 20.2666L15.9999 23.4666L22.3998 23.4666L22.3998 22.3999L24.5331 22.3999L24.5331 23.4666L30.9331 23.4666L30.9331 21.3333L33.0664 21.3333L33.0664 23.4666L39.4664 23.4666L39.4664 19.2L41.5997 19.2L41.5997 61.8667L45.8663 61.8667L45.8663 11.7334L43.733 11.7334C43.1439 11.7334 42.6663 11.2563 42.6663 10.6667L42.6663 9.6001L6.39996 9.6001L6.39996 28.9829C7.40515 29.3333 8.1687 30.1636 8.43329 31.1948C8.50055 31.4565 8.53345 31.7222 8.53345 31.9861C8.53345 32.7625 8.24884 33.5227 7.7171 34.1135L10.4531 37.7605L10.4395 37.7708C10.5822 37.95 10.6619 38.1714 10.6666 38.3999L10.6666 42.6667C10.6666 42.95 10.5541 43.2209 10.3541 43.4209L8.22076 45.5542C8.02075 45.7542 7.74939 45.8667 7.46661 45.8667L3.19995 45.8667C2.91718 45.8667 2.64581 45.7542 2.4458 45.5542L0.3125 43.4209C0.112488 43.2209 0 42.95 0 42.6667L0 38.3999C0.00469971 38.1714 0.0843506 37.95 0.227112 37.7708L0.213562 37.7605L2.94946 34.1135C2.42651 33.5334 2.13641 32.7808 2.1333 32L4.2666 32C4.2666 32.5896 4.74426 33.0667 5.33331 33.0667C5.92236 33.0667 6.39996 32.5896 6.39996 32C6.39996 31.4109 5.92236 30.9333 5.33331 30.9333C4.74426 30.9333 4.2666 30.4563 4.2666 29.8667L4.2666 9.6001L1.06665 9.6001C0.4776 9.6001 0 9.1228 0 8.53345L0 4.2666C0 3.67749 0.4776 3.19995 1.06665 3.19995L42.6663 3.19995L42.6663 1.06665C42.6663 0.477539 43.1439 0 43.733 0L54.3995 0C54.9886 0 55.4662 0.477539 55.4662 1.06665L55.4662 3.19995ZM5.86664 35.2L7.46661 37.3333L3.19995 37.3333L4.79999 35.2L5.86664 35.2ZM8.53326 42.2256L7.02496 43.7334L3.64166 43.7334L2.1333 42.2256L2.1333 39.4666L8.53326 39.4666L8.53326 42.2256ZM58.3464 5.33325L55.4662 7.25366L55.4662 5.33325L58.3464 5.33325ZM44.7996 2.1333L49.0663 2.1333L49.0663 6.3999L44.7996 6.3999L44.7996 2.1333ZM15.9999 5.54688L18.8801 7.46655L13.1197 7.46655L15.9999 5.54688ZM9.59991 7.25366L6.71973 5.33325L12.4801 5.33325L9.59991 7.25366ZM19.5197 5.33325L25.28 5.33325L22.3998 7.25366L19.5197 5.33325ZM28.7997 5.54688L31.6799 7.46655L25.9196 7.46655L28.7997 5.54688ZM32.3195 5.33325L38.0799 5.33325L35.1997 7.25366L32.3195 5.33325ZM2.1333 5.33325L2.88019 5.33325L6.08014 7.46655L2.1333 7.46655L2.1333 5.33325ZM38.7195 7.46655L41.9194 5.33325L42.6663 5.33325L42.6663 7.46655L38.7195 7.46655ZM50.1329 58.3469L48.2131 55.4666L50.1329 52.5869L50.1329 58.3469ZM50.1329 32.7468L48.2131 29.8667L50.1329 26.9871L50.1329 32.7468ZM47.9996 33.387L49.9194 36.2666L47.9996 39.147L47.9996 33.387ZM47.9996 26.3469L47.9996 20.5869L49.9194 23.4666L47.9996 26.3469ZM47.9996 46.187L49.9194 49.0667L47.9996 51.9468L47.9996 46.187ZM50.1329 45.5405L48.2131 42.6667L50.1329 39.7869L50.1329 45.5405ZM48.2131 17.0667L50.1329 14.187L50.1329 19.9468L48.2131 17.0667ZM47.9996 13.5469L47.9996 11.7334L49.2069 11.7334L47.9996 13.5469ZM39.4664 25.6001L39.4664 36.2666L33.0664 36.2666L33.0664 25.6001L39.4664 25.6001ZM30.9331 25.6001L30.9331 34.7734L28.48 32.3489C28.281 32.1526 28.0128 32.0417 27.7331 32.0405L24.5331 32.0405L24.5331 25.6001L30.9331 25.6001ZM22.3998 25.6001L22.3998 27.3782L15.9999 27.3782L15.9999 25.6001L22.3998 25.6001ZM6.39996 59.1084L9.15826 61.8667L3.64166 61.8667L6.39996 59.1084ZM15.9999 61.8667L15.9999 29.5115L22.3998 29.5115L22.3998 33.1116C22.3998 33.7009 22.8774 34.1782 23.4665 34.1782L27.2946 34.1782L31.2529 38.0923C31.4518 38.2886 31.72 38.3994 31.9998 38.3999L39.4664 38.3999L39.4664 61.8667L15.9999 61.8667ZM47.9996 58.9871L49.9194 61.8667L47.9996 61.8667L47.9996 58.9871ZM60.7995 60.8C60.2104 60.8 59.7328 60.323 59.7328 59.7334C59.7328 59.1443 60.2104 58.6667 60.7995 58.6667C61.3885 58.6667 61.8661 59.1443 61.8661 59.7334C61.8661 60.323 61.3885 60.8 60.7995 60.8ZM58.6662 54.3999C59.2552 54.3999 59.7328 54.8777 59.7328 55.4666C59.7328 56.0562 59.2552 56.5334 58.6662 56.5334C58.0771 56.5334 57.5995 56.0562 57.5995 55.4666C57.5995 54.8777 58.0771 54.3999 58.6662 54.3999ZM56.5328 58.6667C57.1219 58.6667 57.5995 59.1443 57.5995 59.7334C57.5995 60.323 57.1219 60.8 56.5328 60.8C55.9438 60.8 55.4662 60.323 55.4662 59.7334C55.4662 59.1443 55.9438 58.6667 56.5328 58.6667ZM53.3329 9.6001L44.7996 9.6001L44.7996 8.53345L50.1329 8.53345C50.722 8.53345 51.1996 8.05615 51.1996 7.46655L51.1996 2.1333L53.3329 2.1333L53.3329 9.6001ZM58.986 7.46655L61.8661 5.54688L61.8661 7.46655L58.986 7.46655Z" clip-rule="evenodd" fill="#000000" fill-opacity="1.000000" fill-rule="evenodd"/>
</svg>
