<svg width="64.000000" height="43.000000" viewBox="0 0 64 43" fill="none" xmlns="http://www.w3.org/2000/svg" xmlns:xlink="http://www.w3.org/1999/xlink">
	<desc>
			Created with Pixso.
	</desc>
	<defs/>
	<path id="Shape" d="M61.8584 8.4668L63.725 23.5166L63.9917 25.6667C63.9969 25.7107 64 25.7554 64 25.8L64 35.4751C64 36.0686 63.5224 36.55 62.9333 36.55L59.7334 36.55C59.7329 38.1389 59.1475 39.6711 58.0907 40.8501L64 40.8501L64 43L0.000854492 43L0.000854492 40.8501L4.84351 40.8501C3.78674 39.6711 3.20132 38.1389 3.20081 36.55L1.0675 36.55C0.478455 36.55 0.000854492 36.0686 0.000854492 35.4751L0.000854492 29.0249C0.000854492 28.4314 0.478455 27.95 1.0675 27.95L6.12576 27.95C2.23862 25.4348 0 21.1375 0 16.6511C0 15.3928 0.176147 14.1194 0.541473 12.8665C2.20917 7.14697 7.41898 3.22021 13.334 3.2251L13.8673 3.2251L13.8673 1.07495C13.8673 0.481445 14.3449 0 14.934 0L24.5339 0C25.1229 0 25.6005 0.481445 25.6005 1.07495L25.6005 3.2251L26.1339 3.2251C32.0489 3.22021 37.2587 7.14697 38.9264 12.8665C39.2917 14.1194 39.4679 15.3928 39.4679 16.6511C39.4679 21.1375 37.2292 25.4348 33.3421 27.95L40.5337 27.95L40.5337 8.6001C40.5337 8.00635 41.0112 7.5249 41.6003 7.5249L60.8 7.5249C61.338 7.5249 61.7917 7.92871 61.8584 8.4668ZM61.8667 30.1001L59.7334 30.1001L59.7334 27.95L61.8667 27.95L61.8667 30.1001ZM61.4584 22.575L46.9336 22.575L46.9336 13.9751L60.3917 13.9751L61.4584 22.575ZM48.5762 40.8501L27.1578 40.8501C28.2145 39.6711 28.8 38.1389 28.8005 36.55L46.9336 36.55C46.9341 38.1389 47.5195 39.6711 48.5762 40.8501ZM18.1339 36.55C18.1339 34.1753 20.0443 32.25 22.4006 32.25C24.7568 32.25 26.6672 34.1753 26.6672 36.55C26.6672 38.9246 24.7568 40.8501 22.4006 40.8501C20.0443 40.8501 18.1339 38.9246 18.1339 36.55ZM37.3337 16.6626C37.3264 22.8936 32.3166 27.9426 26.1339 27.95L23.4672 27.95L23.4672 5.375L26.1339 5.375C32.3166 5.38232 37.3264 10.4314 37.3337 16.6626ZM21.3339 24.7251L18.1339 24.7251L18.1339 22.575L21.3339 22.575L21.3339 24.7251ZM21.3339 20.425L18.1339 20.425L18.1339 18.2749L21.3339 18.2749L21.3339 20.425ZM21.3339 16.125L18.1339 16.125L18.1339 13.9751L21.3339 13.9751L21.3339 16.125ZM21.3339 11.825L18.1339 11.825L18.1339 9.67505L21.3339 9.67505L21.3339 11.825ZM21.3339 7.5249L18.1339 7.5249L18.1339 5.375L21.3339 5.375L21.3339 7.5249ZM18.1339 26.875L21.3339 26.875L21.3339 27.95L18.1339 27.95L18.1339 26.875ZM16.0006 2.1499L23.4672 2.1499L23.4672 3.2251L16.0006 3.2251L16.0006 2.1499ZM2.13416 16.6626C2.14145 10.4314 7.15128 5.38232 13.334 5.375L16.0006 5.375L16.0006 27.95L13.334 27.95C7.15128 27.9426 2.14145 22.8936 2.13416 16.6626ZM2.13416 34.3999L2.13416 30.1001L9.42825 30.1001C9.37283 30.1016 9.31729 30.1038 9.26166 30.1069C6.67889 30.2463 4.43362 31.9409 3.57425 34.3999L2.13416 34.3999ZM9.78323 30.1001L9.42825 30.1001C9.54703 30.0967 9.66541 30.0967 9.78323 30.1001ZM9.78323 30.1001L22.0661 30.1001C19.7421 30.2195 17.6427 31.6099 16.6241 33.7581C16.2043 34.6438 15.9994 35.5928 15.9994 36.5349C15.9994 38.0972 16.5625 39.6411 17.6433 40.8501L14.358 40.8501C15.4361 39.6416 15.9978 38.0996 15.9978 36.5396C15.9978 35.5969 15.7927 34.6477 15.3725 33.7617C14.3324 31.5688 12.1654 30.1665 9.78323 30.1001ZM22.7187 30.1001L22.0661 30.1001C22.2819 30.0889 22.4997 30.0889 22.7187 30.1001ZM22.7187 30.1001L40.5336 30.1001L40.5336 34.3999L28.427 34.3999C27.5692 31.9387 25.3234 30.2417 22.7386 30.1011C22.7319 30.1006 22.7253 30.1003 22.7187 30.1001ZM5.33411 36.55C5.33411 34.1753 7.24451 32.25 9.60074 32.25C11.9569 32.25 13.8673 34.1753 13.8673 36.55C13.8673 38.9246 11.9569 40.8501 9.60074 40.8501C7.24451 40.8501 5.33411 38.9246 5.33411 36.55ZM49.0669 36.55C49.0669 34.1753 50.9773 32.25 53.3335 32.25C55.6897 32.25 57.6001 34.1753 57.6001 36.55C57.6001 38.9246 55.6897 40.8501 53.3335 40.8501C50.9773 40.8501 49.0669 38.9246 49.0669 36.55ZM59.36 34.3999C58.46 31.8232 56.0444 30.0994 53.3335 30.0994C50.6226 30.0994 48.207 31.8232 47.307 34.3999L42.667 34.3999L42.667 9.67505L59.8584 9.67505L60.1251 11.825L45.8669 11.825C45.2779 11.825 44.8003 12.3064 44.8003 12.8999L44.8003 23.6499C44.8003 24.2437 45.2779 24.7251 45.8669 24.7251L61.725 24.7251L61.8584 25.8L58.6667 25.8C58.0777 25.8 57.6001 26.2812 57.6001 26.875L57.6001 31.175C57.6001 31.7686 58.0777 32.25 58.6667 32.25L61.8667 32.25L61.8667 34.3999L59.36 34.3999Z" clip-rule="evenodd" fill="#000000" fill-opacity="1.000000" fill-rule="evenodd"/>
</svg>
