<svg width="64.000000" height="57.000000" viewBox="0 0 64 57" fill="none" xmlns="http://www.w3.org/2000/svg" xmlns:xlink="http://www.w3.org/1999/xlink">
	<desc>
			Created with Pixso.
	</desc>
	<defs/>
	<path id="Shape" d="M49.6266 43.2473C51.3073 44.7439 52.2667 46.8733 52.2667 49.1069C52.2661 51.3074 51.3307 53.4065 49.6885 54.8953L64 54.8953L64 57L0 57L0 54.8953L10.0469 54.8953C9.09427 54.0269 8.36927 52.9436 7.93385 51.738L1.06667 51.738C0.477604 51.738 0 51.2668 0 50.6855L0 32.7949C0 32.2136 0.477604 31.7424 1.06667 31.7424L2.13333 31.7424L2.13333 30.6902L1.06667 30.6902C0.477604 30.6902 0 30.219 0 29.6377L0 26.4805C0 25.8994 0.477604 25.4282 1.06667 25.4282L5.33333 25.4282C5.9224 25.4282 6.4 25.8994 6.4 26.4805L6.4 29.6377C6.4 30.219 5.9224 30.6902 5.33333 30.6902L4.26667 30.6902L4.26667 31.7424L8.53333 31.7424L8.53333 25.4282C8.53333 24.2659 7.57812 23.3232 6.4 23.3232L5.33333 23.3232L5.33333 21.2185L6.4 21.2185C8.75625 21.2185 10.6667 23.1035 10.6667 25.4282L10.6667 31.7424L14.9333 31.7424L14.9333 19.1138C14.9333 18.5325 15.4109 18.0613 16 18.0613L16 15.9565L18.1333 15.9565L18.1333 18.0613L24.5333 18.0613L24.5333 15.9565L26.6667 15.9565L26.6667 18.0613C27.1323 18.0613 27.5443 18.3594 27.6844 18.7983L33.0177 35.6365C33.05 35.7383 33.0667 35.8452 33.0667 35.9521L33.0667 38.0569C33.0667 38.6379 32.5891 39.1094 32 39.1094L27.7333 39.1094L27.7333 42.2664L29.8667 42.2664C29.8667 41.6853 30.3443 41.2141 30.9333 41.2141L34.2594 41.2141L34.8276 36.7615L34.2281 25.1316C34.2272 25.1138 34.2268 25.0959 34.2268 25.0784C34.2268 24.7422 34.3896 24.4248 34.6667 24.2263L46.751 15.5598C46.9672 15.1565 47.2615 14.7988 47.6172 14.5076L48.7328 13.6067L48.0927 12.1746C48.0321 12.0396 48.0012 11.8943 48.0012 11.748C48.0012 11.6895 48.0062 11.6306 48.0161 11.5723L49.0667 5.40332C49.1073 5.16333 49.2312 4.94556 49.4167 4.78564L54.6583 0.26001C54.9443 0.0134277 55.3417 -0.0646973 55.7016 0.0554199C56.0615 0.175293 56.3292 0.474854 56.4052 0.842285L59.6479 16.4878L63.6875 20.4744C63.8914 20.676 63.9999 20.9453 63.9999 21.2192C63.9999 21.3547 63.9734 21.4915 63.9187 21.6213C63.7536 22.0144 63.3646 22.271 62.9333 22.271L53.3333 22.271C52.9146 22.27 52.5354 22.0269 52.3635 21.6501L51.7771 20.3469L50.8599 20.606C50.7797 20.6282 50.6995 20.6389 50.6208 20.6553L43.6703 27.0068L42.1771 36.5837L42.6339 38.835L43.4484 41.2551C45.701 41.0266 47.9458 41.7505 49.6266 43.2473ZM2.13333 27.533L4.26667 27.533L4.26667 28.5852L2.13333 28.5852L2.13333 27.533ZM50.1333 49.1069C50.1333 52.3037 47.5068 54.8953 44.2667 54.8953C41.0266 54.8953 38.4 52.3037 38.4 49.1069C38.4 45.9102 41.0266 43.3188 44.2667 43.3188C47.5052 43.323 50.1292 45.9119 50.1333 49.1069ZM51.1062 6.12183L54.6818 3.03638L57.6224 17.2197C57.6635 17.4216 57.7646 17.6077 57.9125 17.7529L60.3583 20.1663L54.0266 20.1663L53.3464 18.6548L51.0708 13.6035L50.1729 11.6104L51.1062 6.12183ZM48.9729 16.1355L49.6354 15.6011L50.8958 18.4004L50.2688 18.5774C49.5948 18.7729 48.8771 18.4509 48.5844 17.8203C48.4942 17.6294 48.4507 17.4268 48.4507 17.2261C48.4507 16.8137 48.6344 16.4099 48.974 16.1355L48.9729 16.1355ZM46.5109 18.3328C46.5505 18.4607 46.5969 18.5859 46.6505 18.7087C46.9375 19.3198 47.3969 19.8362 47.9734 20.1965L41.9411 25.7092C41.7646 25.8706 41.6484 26.0864 41.613 26.3218L40.5078 33.4368C39.4089 32.6597 37.9531 32.5806 36.7745 33.2336L36.3807 25.5935L46.5109 18.3328ZM35.2 43.3188C35.738 43.3188 36.1917 42.9236 36.2583 42.397L36.9599 36.8528L36.9599 36.835L37.0474 36.1448C37.1333 35.4526 37.7156 34.9243 38.4219 34.8982C39.1281 34.8718 39.749 35.3555 39.887 36.0396L40.5526 39.3132C40.5599 39.3564 40.5714 39.3987 40.5865 39.4397L41.3688 41.7551C38.2958 42.9355 36.2708 45.8538 36.2667 49.1069C36.2667 49.2849 36.2818 49.4585 36.2932 49.6333L32 49.6333L32 43.3188L35.2 43.3188ZM29.8667 44.3713L29.8667 47.5283L27.7333 47.5283L27.7333 44.3713L29.8667 44.3713ZM29.8828 32.7949L21.3333 32.7949L21.3333 24.3757L27.2161 24.3757L29.8828 32.7949ZM16 33.8474C16.5891 33.8474 17.0667 33.376 17.0667 32.7949L17.0667 20.1663L25.8828 20.1663L26.5495 22.271L20.2667 22.271C19.6776 22.271 19.2 22.7422 19.2 23.3232L19.2 33.8474C19.2 34.4285 19.6776 34.8997 20.2667 34.8997L30.5495 34.8997L30.9333 36.1118L30.9333 37.0044L11.7333 37.0044C11.4734 37.0044 11.2229 37.0979 11.0281 37.2676L3.86458 43.4946L2.13333 43.4946L2.13333 33.8474L16 33.8474ZM2.13333 49.6333L2.13333 45.5994L4.26667 45.5994C4.52656 45.5994 4.77708 45.5059 4.97187 45.3362L12.1375 39.1094L25.6 39.1094L25.6 49.6333L23.4411 49.6333C23.4526 49.4585 23.4677 49.2849 23.4677 49.1069C23.4677 44.7478 19.8859 41.2141 15.4677 41.2141C11.0495 41.2141 7.46771 44.7478 7.46771 49.1069C7.46771 49.2849 7.48281 49.4585 7.49427 49.6333L2.13333 49.6333ZM9.6 49.1069C9.6 45.9102 12.2266 43.3188 15.4667 43.3188C18.7068 43.3188 21.3333 45.9102 21.3333 49.1069C21.3333 52.3037 18.7068 54.8953 15.4667 54.8953C12.2281 54.8911 9.60417 52.3022 9.6 49.1069ZM20.8885 54.8953C21.8417 54.0273 22.5661 52.9436 23.0005 51.738L26.6667 51.738C27.2557 51.738 27.7333 51.2668 27.7333 50.6855L27.7333 49.6333L29.8667 49.6333L29.8667 50.6855C29.8667 51.2668 30.3443 51.738 30.9333 51.738L36.7328 51.738C37.1677 52.9436 37.8932 54.0269 38.8458 54.8953L20.8885 54.8953Z" clip-rule="evenodd" fill="#000000" fill-opacity="1.000000" fill-rule="evenodd"/>
</svg>
