<svg width="82" height="34" viewBox="0 0 82 34" fill="none" xmlns="http://www.w3.org/2000/svg">
<path d="M10.68 33.48C8.22667 33.48 6.28 33.04 4.84 32.16C3.42667 31.2533 2.42667 30 1.84 28.4C1.25333 26.7733 0.96 24.8667 0.96 22.68V11C0.96 8.76 1.25333 6.84 1.84 5.24C2.42667 3.61333 3.42667 2.36 4.84 1.48C6.28 0.599998 8.22667 0.159998 10.68 0.159998C13.08 0.159998 14.9467 0.559999 16.28 1.36C17.64 2.13333 18.6 3.22667 19.16 4.64C19.72 6.05333 20 7.68 20 9.52V12.32H13V9.08C13 8.44 12.96 7.82666 12.88 7.24C12.8267 6.65333 12.64 6.17333 12.32 5.8C12 5.4 11.4533 5.2 10.68 5.2C9.93333 5.2 9.37333 5.4 9 5.8C8.65333 6.2 8.42667 6.70667 8.32 7.32C8.24 7.90667 8.2 8.53333 8.2 9.2V24.44C8.2 25.16 8.25333 25.8267 8.36 26.44C8.49333 27.0267 8.73333 27.5067 9.08 27.88C9.45333 28.2267 9.98667 28.4 10.68 28.4C11.4267 28.4 11.96 28.2133 12.28 27.84C12.6 27.44 12.8 26.9333 12.88 26.32C12.96 25.7067 13 25.08 13 24.44V21.04H20V23.84C20 25.68 19.72 27.3333 19.16 28.8C18.6267 30.24 17.68 31.3867 16.32 32.24C14.9867 33.0667 13.1067 33.48 10.68 33.48ZM23.9391 33V0.599998H28.9791L35.6191 16.2V0.599998H41.5391V33H36.6991L30.0591 16.2V33H23.9391ZM54.9609 33.48C52.9343 33.48 51.2409 33.12 49.8809 32.4C48.5209 31.68 47.4943 30.5733 46.8009 29.08C46.1076 27.56 45.7209 25.6 45.6409 23.2L51.7609 22.28C51.7876 23.6667 51.9076 24.7867 52.1209 25.64C52.3609 26.4933 52.6809 27.1067 53.0809 27.48C53.5076 27.8533 54.0143 28.04 54.6009 28.04C55.3476 28.04 55.8276 27.7867 56.0409 27.28C56.2809 26.7733 56.4009 26.24 56.4009 25.68C56.4009 24.3467 56.0809 23.2267 55.4409 22.32C54.8009 21.3867 53.9343 20.4533 52.8409 19.52L50.0409 17.08C48.8143 16.04 47.7743 14.8667 46.9209 13.56C46.0943 12.2267 45.6809 10.5867 45.6809 8.64C45.6809 5.89333 46.4943 3.8 48.1209 2.36C49.7476 0.893332 51.9609 0.159998 54.7609 0.159998C56.4943 0.159998 57.8809 0.453332 58.9209 1.04C59.9876 1.62667 60.7876 2.4 61.3209 3.36C61.8809 4.29333 62.2543 5.29333 62.4409 6.36C62.6543 7.4 62.7743 8.4 62.8009 9.36L56.6409 10.12C56.6143 9.16 56.5476 8.33333 56.4409 7.64C56.3609 6.92 56.1743 6.37333 55.8809 6C55.5876 5.6 55.1343 5.4 54.5209 5.4C53.8543 5.4 53.3609 5.68 53.0409 6.24C52.7476 6.8 52.6009 7.36 52.6009 7.92C52.6009 9.12 52.8809 10.1067 53.4409 10.88C54.0276 11.6267 54.7876 12.4133 55.7209 13.24L58.4009 15.6C59.8143 16.8 61.0009 18.16 61.9609 19.68C62.9476 21.2 63.4409 23.08 63.4409 25.32C63.4409 26.84 63.0943 28.2267 62.4009 29.48C61.7076 30.7067 60.7209 31.68 59.4409 32.4C58.1876 33.12 56.6943 33.48 54.9609 33.48ZM69.8278 33V5.92H64.9478V0.599998H81.8678V5.92H77.0278V33H69.8278Z" fill="white"/>
</svg>
